# xmcd
#
# Track frame offsets: 
#        150
#        18426
#        38013
#        57896
#        83039
#        99971
#        120185
#        144221
#        162812
#        178355
#        198200
#
# Disc length: 2911 seconds
#
# Revision: 2
# Processed by: cddbd v1.5.2PL0 Copyright (c) Steve Scherf et al.
# Submitted via: ExactAudioCopy v0.99pb5
#
DISCID=7c0b5d0b
DTITLE=Israel Nash Gripka - ISRAEL NASH GRIPKA - Barn Doors And Concre
DTITLE=te Floors
DYEAR=2011
DGENRE=Country
TTITLE0=Fool's Gold
TTITLE1=Drown
TTITLE2=Sunset, Regret
TTITLE3=Goodbye Ghost
TTITLE4=Four Winds
TTITLE5=Louisiana
TTITLE6=Baltimore
TTITLE7=Red Dress
TTITLE8=Black And Blue
TTITLE9=Bellwether Ballad
TTITLE10=Antebellum
EXTD=
EXTT0=
EXTT1=
EXTT2=
EXTT3=
EXTT4=
EXTT5=
EXTT6=
EXTT7=
EXTT8=
EXTT9=
EXTT10=
PLAYORDER=
